<?xml version="1.0" encoding="UTF-8"?> <svg xmlns="http://www.w3.org/2000/svg" width="3162" height="3315" viewBox="0 0 3162 3315" fill="none"> <g clip-path="url(#clip0_319_75)"> <rect width="3162" height="3315" fill="white"></rect> <mask id="path-1-inside-1_319_75" fill="white"> <path d="M2321.99 2118.03C2310.65 2130.91 2300.44 2142.53 2290.36 2154.29C2288.54 2156.39 2286.86 2159.19 2286.44 2161.99C2261.53 2335.14 2254.53 2508.02 2297.22 2679.91C2341.58 2858.11 2429.34 3008.02 2581.75 3115.53C2675.38 3181.6 2780.2 3221.63 2891.47 3246.13C2901.96 3248.37 2912.46 3250.47 2922.96 3253.13C2941.85 3257.89 2952.21 3271.33 2949.83 3287.56C2947.31 3305.06 2931.35 3317.94 2911.9 3314.58C2884.33 3309.82 2856.9 3303.52 2829.75 3296.38C2668.1 3253.27 2525.06 3178.1 2413.66 3050.3C2313.87 2935.79 2255.51 2801.13 2225.56 2653.46C2199.11 2522.85 2197.3 2367.14 2212 2235C2212 2235 2204.75 2243.98 2191.41 2257.31C2090.08 2357.82 1981.76 2450.07 1857.76 2521.45C1663.92 2633.02 1466.87 2638.06 1269.67 2528.59C1154.35 2464.62 1047 2389.03 948.193 2301.69C943.854 2297.91 939.096 2294.41 934.057 2290.35C936.437 2341.72 940.775 2391.55 940.635 2441.39C940.355 2604.88 911.945 2762.36 833.85 2908.08C737.841 3087.67 589.209 3205.12 398.73 3270.77C348.066 3288.26 295.443 3299.6 243.38 3313.04C234.983 3315.14 225.046 3315.7 216.929 3313.32C203.353 3309.4 194.676 3299.04 195.376 3283.92C196.215 3267.83 205.312 3257.33 220.847 3253.27C259.615 3243.33 298.942 3235.49 337.01 3223.87C477.385 3180.9 601.105 3110.49 697.814 2997.53C781.087 2900.24 829.651 2786.58 855.403 2662.41C885.773 2516 883.114 2369.16 857.922 2222.32C856.662 2215.04 850.364 2207.76 844.906 2202.16C649.109 1999.47 509.434 1764.02 431.2 1492.88C425.461 1473.01 417.064 1461.67 396.631 1453.55C277.109 1406.1 189.917 1320.15 121.759 1213.62C59.7594 1116.9 17.9129 1012.19 3.77746 897.55C-2.24059 848.557 -1.40087 799.704 9.65557 751.411C24.2109 687.86 60.5991 638.868 112.802 601.213C155.349 570.697 201.394 564.538 252.897 587.495C252.057 579.236 251.358 573.217 250.658 567.198C239.182 468.652 227.705 370.246 216.229 271.701C215.949 268.761 215.529 265.682 215.529 262.742C215.529 245.245 226.166 231.247 241.421 228.867C257.236 226.347 273.47 236.986 276.829 254.903C280.748 276.04 282.288 297.597 284.807 318.874C285.367 324.053 285.926 329.232 286.906 337.211C299.082 327.973 309.159 319.994 319.376 312.295C451.213 213.889 599.006 148.379 755.335 100.506C958.41 38.2146 1166.8 10.3586 1378.41 2.37974C1561.06 -4.47927 1742.86 3.49957 1923.96 28.276C2225 69.57 2513.73 150.898 2782.16 296.757C2806.79 310.195 2830.73 324.753 2857.6 340.431C2859.84 321.114 2862.08 303.056 2863.75 285.139C2865.15 270.301 2865.85 255.323 2867.39 240.485C2869.35 220.888 2883.07 208.43 2900.14 209.83C2917.92 211.369 2930.51 224.948 2928.97 244.125C2924.08 305.436 2918.76 366.747 2912.46 428.058C2906.58 485.03 2899.16 541.862 2892.17 600.653C2896.64 598.693 2899.72 597.714 2902.38 596.034C2952.07 565.658 3001.89 567.478 3048.92 599.813C3121.13 649.366 3158.5 719.356 3161.86 807.123C3165.78 910.568 3137.37 1006.87 3094.12 1099.26C3034.78 1226.08 2952.49 1334.85 2832.82 1410.86C2799.38 1432.13 2761.59 1446.69 2725.34 1463.49C2716.52 1467.55 2706.17 1468.67 2694.83 1471.61C2626.25 1658.2 2533.74 1834.01 2413.66 1998.21L2322.13 2117.89L2321.99 2118.03ZM2366.36 1955.1C2426.82 1871.81 2480.28 1784.18 2527.16 1692.49C2543.54 1660.44 2663.48 1371.24 2684.47 1296.07C2763.97 1011.35 2815.19 721.176 2849.34 427.638C2850.6 416.44 2847.38 410.001 2837.72 404.821C2777.26 372.486 2718.34 336.791 2656.34 307.676C2377.69 176.794 2082.81 106.245 1777.15 78.6687C1561.06 59.2115 1345.1 61.0312 1129.57 88.7472C974.504 108.764 822.793 142.639 676.261 197.651C544.143 247.344 419.583 310.615 311.118 402.862C299.782 412.52 293.764 421.619 296.143 437.717C313.917 555.16 327.493 673.443 348.626 790.326C383.895 985.317 423.502 1179.47 461.71 1373.76C467.028 1400.78 474.306 1427.51 481.443 1457.33C481.443 1457.33 493.2 1490.36 493.759 1491.76C503.836 1522.42 513.073 1553.36 524.41 1583.45C654.847 1930.32 879.895 2200.76 1187.8 2404.01C1248.54 2444.19 1309.84 2483.94 1378.55 2509.56C1422.22 2525.79 1467.15 2536.71 1514.73 2539.23C1514.73 2539.23 1599.12 2538.81 1605.14 2538.25C1686.03 2529.85 1761.33 2504.94 1830.61 2462.24C1970 2376.44 2093.16 2271.03 2204.71 2151.77C2224.58 2130.49 2243.62 2108.51 2263.21 2086.54C2263.21 2086.54 2359.22 1965.18 2366.64 1954.96L2366.36 1955.1ZM2723.38 1398.4C2729.96 1395.74 2734.44 1394.48 2738.5 1392.38C2755.01 1383.98 2771.94 1376.28 2787.62 1366.62C2903.22 1295.09 2982.72 1192.35 3040.24 1071.26C3079.43 988.957 3104.34 903.009 3101.4 810.483C3099.58 752.111 3076.91 704.518 3033.66 665.604C2989.01 625.569 2947.31 628.369 2908.68 674.422C2903.08 681.141 2895.1 685.761 2889.09 692.2C2883.91 697.659 2877.47 703.678 2876.07 710.537C2871.17 733.914 2868.37 757.71 2864.31 781.227C2830.03 983.778 2788.46 1184.79 2727.72 1381.32C2726.18 1386.22 2725.2 1391.26 2723.38 1398.26V1398.4ZM405.588 1389.86C399.01 1351.5 394.811 1316.51 386.694 1282.35C342.328 1095.2 305.38 906.649 275.43 716.696C271.231 690.38 260.455 671.203 240.721 655.245C211.051 631.169 185.159 629.069 154.089 650.626C109.024 681.841 76.554 722.715 70.256 778.427C66.0574 816.082 62.9784 855.136 68.0167 892.511C89.01 1049.29 157.448 1183.39 269.272 1295.23C307.899 1333.87 351.985 1365.22 405.728 1390L405.588 1389.86Z"></path> </mask> <path d="M2321.99 2118.03C2310.65 2130.91 2300.44 2142.53 2290.36 2154.29C2288.54 2156.39 2286.86 2159.19 2286.44 2161.99C2261.53 2335.14 2254.53 2508.02 2297.22 2679.91C2341.58 2858.11 2429.34 3008.02 2581.75 3115.53C2675.38 3181.6 2780.2 3221.63 2891.47 3246.13C2901.96 3248.37 2912.46 3250.47 2922.96 3253.13C2941.85 3257.89 2952.21 3271.33 2949.83 3287.56C2947.31 3305.06 2931.35 3317.94 2911.9 3314.58C2884.33 3309.82 2856.9 3303.52 2829.75 3296.38C2668.1 3253.27 2525.06 3178.1 2413.66 3050.3C2313.87 2935.79 2255.51 2801.13 2225.56 2653.46C2199.11 2522.85 2197.3 2367.14 2212 2235C2212 2235 2204.75 2243.98 2191.41 2257.31C2090.08 2357.82 1981.76 2450.07 1857.76 2521.45C1663.92 2633.02 1466.87 2638.06 1269.67 2528.59C1154.35 2464.62 1047 2389.03 948.193 2301.69C943.854 2297.91 939.096 2294.41 934.057 2290.35C936.437 2341.72 940.775 2391.55 940.635 2441.39C940.355 2604.88 911.945 2762.36 833.85 2908.08C737.841 3087.67 589.209 3205.12 398.73 3270.77C348.066 3288.26 295.443 3299.6 243.38 3313.04C234.983 3315.14 225.046 3315.7 216.929 3313.32C203.353 3309.4 194.676 3299.04 195.376 3283.92C196.215 3267.83 205.312 3257.33 220.847 3253.27C259.615 3243.33 298.942 3235.49 337.01 3223.87C477.385 3180.9 601.105 3110.49 697.814 2997.53C781.087 2900.24 829.651 2786.58 855.403 2662.41C885.773 2516 883.114 2369.16 857.922 2222.32C856.662 2215.04 850.364 2207.76 844.906 2202.16C649.109 1999.47 509.434 1764.02 431.2 1492.88C425.461 1473.01 417.064 1461.67 396.631 1453.55C277.109 1406.1 189.917 1320.15 121.759 1213.62C59.7594 1116.9 17.9129 1012.19 3.77746 897.55C-2.24059 848.557 -1.40087 799.704 9.65557 751.411C24.2109 687.86 60.5991 638.868 112.802 601.213C155.349 570.697 201.394 564.538 252.897 587.495C252.057 579.236 251.358 573.217 250.658 567.198C239.182 468.652 227.705 370.246 216.229 271.701C215.949 268.761 215.529 265.682 215.529 262.742C215.529 245.245 226.166 231.247 241.421 228.867C257.236 226.347 273.47 236.986 276.829 254.903C280.748 276.04 282.288 297.597 284.807 318.874C285.367 324.053 285.926 329.232 286.906 337.211C299.082 327.973 309.159 319.994 319.376 312.295C451.213 213.889 599.006 148.379 755.335 100.506C958.41 38.2146 1166.8 10.3586 1378.41 2.37974C1561.06 -4.47927 1742.86 3.49957 1923.96 28.276C2225 69.57 2513.73 150.898 2782.16 296.757C2806.79 310.195 2830.73 324.753 2857.6 340.431C2859.84 321.114 2862.08 303.056 2863.75 285.139C2865.15 270.301 2865.85 255.323 2867.39 240.485C2869.35 220.888 2883.07 208.43 2900.14 209.83C2917.92 211.369 2930.51 224.948 2928.97 244.125C2924.08 305.436 2918.76 366.747 2912.46 428.058C2906.58 485.03 2899.16 541.862 2892.17 600.653C2896.64 598.693 2899.72 597.714 2902.38 596.034C2952.07 565.658 3001.89 567.478 3048.92 599.813C3121.13 649.366 3158.5 719.356 3161.86 807.123C3165.78 910.568 3137.37 1006.87 3094.12 1099.26C3034.78 1226.08 2952.49 1334.85 2832.82 1410.86C2799.38 1432.13 2761.59 1446.69 2725.34 1463.49C2716.52 1467.55 2706.17 1468.67 2694.83 1471.61C2626.25 1658.2 2533.74 1834.01 2413.66 1998.21L2322.13 2117.89L2321.99 2118.03ZM2366.36 1955.1C2426.82 1871.81 2480.28 1784.18 2527.16 1692.49C2543.54 1660.44 2663.48 1371.24 2684.47 1296.07C2763.97 1011.35 2815.19 721.176 2849.34 427.638C2850.6 416.44 2847.38 410.001 2837.72 404.821C2777.26 372.486 2718.34 336.791 2656.34 307.676C2377.69 176.794 2082.81 106.245 1777.15 78.6687C1561.06 59.2115 1345.1 61.0312 1129.57 88.7472C974.504 108.764 822.793 142.639 676.261 197.651C544.143 247.344 419.583 310.615 311.118 402.862C299.782 412.52 293.764 421.619 296.143 437.717C313.917 555.16 327.493 673.443 348.626 790.326C383.895 985.317 423.502 1179.47 461.71 1373.76C467.028 1400.78 474.306 1427.51 481.443 1457.33C481.443 1457.33 493.2 1490.36 493.759 1491.76C503.836 1522.42 513.073 1553.36 524.41 1583.45C654.847 1930.32 879.895 2200.76 1187.8 2404.01C1248.54 2444.19 1309.84 2483.94 1378.55 2509.56C1422.22 2525.79 1467.15 2536.71 1514.73 2539.23C1514.73 2539.23 1599.12 2538.81 1605.14 2538.25C1686.03 2529.85 1761.33 2504.94 1830.61 2462.24C1970 2376.44 2093.16 2271.03 2204.71 2151.77C2224.58 2130.49 2243.62 2108.51 2263.21 2086.54C2263.21 2086.54 2359.22 1965.18 2366.64 1954.96L2366.36 1955.1ZM2723.38 1398.4C2729.96 1395.74 2734.44 1394.48 2738.5 1392.38C2755.01 1383.98 2771.94 1376.28 2787.62 1366.62C2903.22 1295.09 2982.72 1192.35 3040.24 1071.26C3079.43 988.957 3104.34 903.009 3101.4 810.483C3099.58 752.111 3076.91 704.518 3033.66 665.604C2989.01 625.569 2947.31 628.369 2908.68 674.422C2903.08 681.141 2895.1 685.761 2889.09 692.2C2883.91 697.659 2877.47 703.678 2876.07 710.537C2871.17 733.914 2868.37 757.71 2864.31 781.227C2830.03 983.778 2788.46 1184.79 2727.72 1381.32C2726.18 1386.22 2725.2 1391.26 2723.38 1398.26V1398.4ZM405.588 1389.86C399.01 1351.5 394.811 1316.51 386.694 1282.35C342.328 1095.2 305.38 906.649 275.43 716.696C271.231 690.38 260.455 671.203 240.721 655.245C211.051 631.169 185.159 629.069 154.089 650.626C109.024 681.841 76.554 722.715 70.256 778.427C66.0574 816.082 62.9784 855.136 68.0167 892.511C89.01 1049.29 157.448 1183.39 269.272 1295.23C307.899 1333.87 351.985 1365.22 405.728 1390L405.588 1389.86Z" fill="#7C7C7C" stroke="white" stroke-width="30" mask="url(#path-1-inside-1_319_75)"></path> <path d="M1176.46 1898.41C1247.56 1851.51 1316.14 1804.62 1386.39 1760.39C1431.46 1731.97 1481.28 1735.33 1527.61 1756.05C1558.4 1769.9 1583.03 1769.62 1613.82 1756.05C1667.7 1732.11 1721.73 1735.61 1772.25 1770.18C1835.37 1813.3 1899.19 1855.29 1963.99 1898.55C1939.77 1947.82 1907.17 1988.41 1867.14 2023.13C1798.84 2082.2 1719.07 2114.11 1629.49 2121.25C1534.19 2128.95 1440.84 2122.09 1353.78 2076.88C1276.67 2036.85 1218.59 1978.05 1176.6 1898.41H1176.46ZM1821.23 1912.82C1783.73 1906.24 1742.72 1898.55 1701.71 1891.97C1690.93 1890.29 1679.04 1890.15 1668.4 1892.53C1616.2 1904.42 1564 1910.86 1510.67 1900.09C1490.38 1896.03 1469.25 1888.47 1449.37 1890.71C1404.03 1895.75 1359.1 1905.68 1319.07 1912.82C1484.36 1921.08 1654.69 1921.36 1821.23 1912.82Z" fill="#7C7C7C"></path> <path d="M2205.55 597.434C2096.8 588.195 2000.79 627.389 1902.54 654.405C1996.45 611.012 2090.78 569.578 2197.57 572.797C2205.55 573.077 2213.66 568.038 2222.06 565.238C2221.92 564.398 2222.62 568.318 2223.32 571.537C2255.65 576.297 2287.56 581.056 2321.15 585.955C2323.39 581.196 2326.19 575.037 2329.13 568.878C2327.59 592.814 2346.2 593.934 2361.74 598.973C2371.95 602.193 2382.59 605.272 2391.55 610.872C2406.52 620.25 2415.34 616.191 2421.92 601.213C2425 594.354 2429.06 587.915 2436.47 582.176C2433.67 596.734 2431.01 611.152 2427.94 627.109C2443.75 637.748 2460.41 648.946 2478.6 661.124C2487.14 650.486 2495.39 640.407 2503.51 630.329C2504.35 630.609 2505.05 630.889 2505.89 631.169C2500.99 643.207 2495.95 655.245 2489.66 670.783C2495.25 674.562 2502.25 679.462 2509.39 684.361C2508.41 685.621 2507.43 686.881 2506.45 688.001C2499.87 684.501 2493.29 681.001 2484.62 676.382C2474.26 689.96 2463.48 704.098 2451.73 719.496C2459.01 720.056 2471.32 724.535 2481.26 721.316C2508.69 712.637 2535.14 700.879 2559.63 691.22C2546.62 713.337 2521.85 729.155 2495.81 744.972C2530.94 752.671 2564.25 748.752 2598.26 735.034C2591.12 740.773 2584.82 748.332 2576.85 752.111C2557.53 761.07 2537.94 771.288 2517.37 775.348C2498.75 779.127 2487.42 787.106 2480.7 803.904C2478.32 809.923 2474.82 815.522 2471.32 822.101C2482.94 832.74 2494.41 843.098 2506.73 854.296C2502.67 855.836 2501.41 856.816 2500.85 856.536C2477.15 844.031 2456.11 847.671 2437.73 867.455C2431.71 873.894 2424.58 879.493 2417.86 885.792C2425.28 896.71 2431.85 906.229 2438.29 915.747C2437.87 917.847 2437.45 919.947 2437.03 921.907C2404.98 879.633 2383.85 917.427 2357.96 926.806C2361.04 937.864 2363.7 947.943 2367.2 960.401C2352.36 952.982 2352.08 929.046 2330.81 935.905C2316.67 940.524 2302.26 943.883 2287 948.083V991.057C2285.18 990.357 2283.64 990.217 2283.5 989.657C2275.29 964.74 2257.98 952.889 2231.58 954.102C2223.32 954.522 2214.92 954.802 2205.13 955.362V993.996C2198.69 958.861 2175.32 952.002 2143.83 947.523C2082.39 938.844 2028.92 910.428 1981.06 870.114C1965.38 856.956 1943.27 851.077 1923.54 842.958C1906.46 835.959 1887.85 832.46 1871.61 824.201C1846.56 811.323 1844.32 790.746 1863.92 770.449C1869.24 764.989 1875.25 759.53 1882.11 756.171C1933.47 730.834 1984 703.678 2036.9 681.841C2070.07 668.263 2106.46 659.585 2142.15 655.245C2169.44 651.886 2184.13 638.588 2195.89 617.171C2198.97 611.572 2201.63 605.552 2205.69 597.154L2205.55 597.434ZM2280.98 694.999C2310.51 754.351 2305.47 807.403 2260.27 853.737C2222.06 892.931 2162.58 904.689 2112.9 881.732C2043.9 849.957 2021.51 793.825 2036.9 716.416C1999.25 733.774 1965.24 749.452 1931.24 764.989C1921.86 769.329 1910.1 773.808 1913.88 786.126C1916.4 794.525 1923.96 804.744 1931.8 807.823C1959.93 818.882 1984 835.119 2007.65 853.876C2079.45 911.128 2163.98 925.546 2252.71 918.407C2341.02 911.408 2405.26 864.655 2450.05 789.766C2454.25 782.767 2456.91 774.928 2460.68 766.809C2402.74 737.833 2346.9 708.158 2280.84 695.139L2280.98 694.999ZM2307.15 603.593C2284.9 600.653 2265.03 597.574 2245.01 595.334C2237.46 594.494 2229.76 595.334 2221.5 595.334C2218.14 611.991 2214.78 628.089 2211.57 644.187C2251.17 652.726 2285.88 638.728 2307.15 603.733V603.593ZM2160.06 744.412C2160.34 728.315 2145.65 713.477 2129.27 713.337C2112.76 713.197 2097.92 727.475 2097.64 743.712C2097.36 759.95 2111.92 774.648 2128.43 774.788C2144.95 774.928 2159.78 760.79 2160.06 744.412ZM2301 659.305C2333.89 674.282 2365.24 665.044 2392.39 630.609C2371.53 624.31 2351.24 618.011 2332.91 612.411C2321.29 629.489 2311.07 644.467 2301 659.165V659.305ZM2469.08 666.304C2453.55 659.025 2440.39 652.306 2426.68 646.846C2423.46 645.587 2417.3 647.266 2414.78 649.786C2403.58 660.984 2393.37 673.163 2382.73 684.921C2417.86 703.398 2428.92 701.159 2469.08 666.304Z" fill="#7C7C7C"></path> <path d="M875.837 592.535C889.972 624.03 903.968 648.387 943.855 650.206C990.46 652.306 1034.55 669.104 1076.25 690.94C1113.2 710.258 1151.41 727.335 1188.64 746.092C1199.13 751.412 1209.35 758.271 1217.75 766.389C1235.8 783.607 1232.72 808.663 1210.47 819.722C1198.01 825.881 1183.46 829.24 1169.46 830.92C1140.91 834.42 1115.72 843.378 1093.47 862.836C1044.9 905.109 987.521 930.306 924.121 938.005C897.67 941.224 886.333 953.122 880.735 975.939C880.035 978.739 879.196 981.538 878.496 984.198C876.956 984.198 875.417 984.198 873.877 984.198C873.877 977.899 873.877 971.46 873.877 965.161C873.877 958.862 873.877 952.283 873.877 944.724C855.683 943.464 837.349 941.784 819.015 941.504C815.096 941.504 809.358 945.843 807.399 949.623C802.92 958.442 800.261 968.1 795.083 982.098V938.145C777.309 933.245 760.374 928.066 743.159 924.427C739.521 923.727 733.643 927.926 730.564 931.286C724.685 937.865 719.927 945.563 712.369 952.143C715.728 940.384 719.087 928.626 722.586 916.728C709.151 908.329 696.415 899.23 682.839 892.231C678.36 889.852 670.523 890.971 665.345 893.211C657.367 896.851 650.509 902.87 641.132 906.649C647.85 896.711 654.568 886.632 661.566 876.274C648.69 861.856 636.094 847.018 622.379 833.02C619.719 830.36 612.442 830.08 608.383 831.62C597.467 835.959 587.11 841.839 574.234 845.338C585.29 833.58 596.207 821.961 608.523 808.943C604.744 802.084 599.566 794.105 595.927 785.427C590.749 772.969 582.072 768.069 568.636 766.669C532.108 762.89 503.137 749.312 481.164 726.635C516.433 741.753 549.742 747.492 585.011 739.933C557.999 722.296 529.728 707.038 514.473 675.123C551.281 699.899 585.71 725.515 634.415 712.917C619.02 697.519 606.704 685.061 593.828 672.183C589.209 674.703 583.191 677.922 577.313 681.142C576.753 680.442 576.193 679.602 575.634 678.902C580.672 673.583 585.57 668.264 590.329 663.224C584.871 650.626 579.832 638.868 574.654 627.11C575.494 626.69 576.193 626.41 577.033 625.99C585.29 635.648 593.408 645.447 601.805 655.246C619.16 643.207 635.394 632.009 652.049 620.531C649.25 605.693 646.311 590.435 643.372 575.037C644.351 574.757 645.331 574.477 646.311 574.197C653.868 586.796 661.286 599.394 668.983 612.412C695.855 602.193 721.187 592.535 747.078 582.736C747.498 575.177 747.918 567.618 748.618 556.42C753.096 566.498 756.035 573.217 759.254 580.636C793.963 575.037 827.972 569.438 864.64 563.419C866.46 563.839 872.618 566.778 878.776 566.638C981.083 563.559 1072.89 600.234 1163.58 641.108C1164.56 641.528 1165.12 642.787 1169.18 647.127C1071.77 616.751 978.843 583.016 875.837 592.255V592.535ZM617.34 768.489C652.329 838.479 702.433 890.132 777.169 910.009C873.597 935.625 966.807 922.607 1052.6 870.114C1085.91 849.817 1112.64 818.882 1151.83 807.684C1153.51 807.264 1154.91 805.864 1156.31 804.744C1169.88 793.266 1168.34 776.888 1152.25 769.049C1127.62 757.011 1102.84 744.973 1077.93 733.774C1066.88 728.735 1054.98 725.375 1041.12 720.476C1057.5 792.846 1036.78 848.138 971.846 880.473C921.602 905.529 870.938 899.65 827.692 863.255C774.09 818.182 767.232 761.49 796.482 697.24C731.683 709.978 676.121 740.073 617.48 768.489H617.34ZM774.229 603.593C792.564 637.748 831.891 653.706 868.139 643.487C864.92 627.25 861.701 611.152 858.062 592.955C829.652 596.594 802.36 599.954 774.09 603.593H774.229ZM980.943 744.833C980.663 728.175 966.388 714.317 949.873 714.597C933.498 714.737 919.503 729.015 919.363 745.532C919.363 761.91 933.358 776.608 949.453 777.028C965.968 777.308 981.363 761.77 981.083 744.973L980.943 744.833ZM747.638 610.872C729.024 617.031 708.451 623.89 687.318 630.889C716.568 666.304 744.979 674.563 779.268 659.025C769.191 643.627 758.974 628.09 747.498 610.872H747.638ZM611.742 667.564C647.85 700.879 669.823 704.658 697.674 683.661C685.078 670.503 672.622 657.205 659.606 643.627C643.932 651.466 628.536 659.165 611.742 667.564Z" fill="#7C7C7C"></path> <path d="M443.238 564.258C464.371 505.607 501.179 457.874 548.204 417.699C596.768 376.405 652.89 349.249 713.63 331.192C750.858 320.134 787.247 330.492 823.495 336.791C952.393 359.188 1080.03 386.624 1203.61 430.298C1225.03 437.857 1245.88 446.535 1266.87 455.214C1295.28 466.972 1306.48 485.31 1300.18 508.406C1293.18 534.023 1263.93 552.78 1237.06 546.201C1202.35 537.802 1167.92 527.724 1133.63 517.365C1021.67 483.63 909.567 450.455 798.023 415.32C673.743 376.125 574.935 418.959 489.843 507.846C473.048 525.484 458.633 545.361 443.098 564.258H443.238Z" fill="#7C7C7C"></path> <path d="M2634.37 564.398C2599.52 514.425 2562.29 472.851 2513.59 442.895C2470.48 416.299 2422.76 400.622 2373.08 399.642C2339.91 398.942 2305.9 409.02 2273.43 418.539C2144.67 456.473 2016.47 496.088 1888.13 534.862C1874.42 539.062 1860.42 542.141 1846.57 545.641C1824.59 551.24 1806.54 544.101 1791.42 528.423C1768.05 504.347 1773.23 470.052 1804.86 458.713C1872.6 434.077 1940.2 407.761 2009.89 390.403C2108.7 365.767 2209.33 347.849 2309.54 328.952C2328.15 325.452 2349.28 327.972 2367.76 333.291C2481.54 365.627 2569.71 431.137 2625.55 537.102C2628.63 542.841 2631.15 549 2633.81 555.019C2634.51 556.559 2634.09 558.379 2634.51 564.398H2634.37Z" fill="#7C7C7C"></path> <path d="M1382.05 1252.54C1353.36 1344.93 1401.93 1408.48 1456.93 1468.67C1480.16 1494.14 1508.43 1514.72 1534.04 1538.1C1538.52 1542.3 1540.76 1549.02 1543.98 1554.62C1537.96 1554.2 1531.38 1555.46 1526.21 1553.22C1471.06 1530.4 1415.5 1508 1368.62 1469.65C1357.14 1460.27 1346.5 1449.35 1337.41 1437.73C1312.91 1406.52 1308.02 1371.8 1322.71 1334.85C1335.31 1303.21 1356.16 1277.46 1382.19 1252.54H1382.05Z" fill="#7C7C7C"></path> <path d="M1599.4 1499.88C1589.33 1473.71 1596.18 1452.29 1620.12 1441.37C1660.84 1422.75 1703.39 1421.77 1745.66 1435.91C1761.61 1441.23 1770.85 1453.55 1771.97 1470.91C1773.37 1494.42 1767.07 1499.74 1743.98 1495.96C1695.83 1488.27 1647.83 1486.87 1599.26 1499.74L1599.4 1499.88Z" fill="#7C7C7C"></path> <path d="M1057.75 972.114C1058.1 971.407 1058.44 970.703 1058.78 970.001C1058.46 970.712 1058.12 971.416 1057.75 972.114C1003.18 1083.99 881.355 1257.4 702.187 1221.62C521.46 1185.54 599.952 1053.51 431.261 879.728C461.864 844.56 548.412 801.298 649.774 909.599C775.077 1043.48 1024.69 1034.58 1057.75 972.114Z" fill="#7EBEC1"></path> <path d="M2028.63 971.667C2028.28 970.96 2027.94 970.255 2027.6 969.553C2027.91 970.264 2028.26 970.969 2028.63 971.667C2083.2 1083.54 2205.02 1256.95 2384.19 1221.18C2564.92 1185.09 2486.43 1053.06 2655.12 879.281C2624.51 844.113 2537.97 800.851 2436.6 909.152C2311.3 1043.03 2061.69 1034.13 2028.63 971.667Z" fill="#7EBEC1"></path> </g> <defs> <clipPath id="clip0_319_75"> <rect width="3162" height="3315" fill="white"></rect> </clipPath> </defs> </svg> 