<?xml version="1.0" encoding="UTF-8"?> <svg xmlns="http://www.w3.org/2000/svg" id="_Слой_2" data-name="Слой 2" viewBox="0 0 51.27 51.28"> <defs> <style> .cls-1 { fill: #68c0c2; } </style> </defs> <g id="_Слой_1-2" data-name="Слой 1"> <path class="cls-1" d="M49.97,26.28H25.56v-1.29h25.72c.02,3.43-.59,6.74-1.86,9.93-2.07,5.19-5.45,9.34-10.15,12.37-9.41,6.07-21.63,5.09-30.03-1.94C.2,37.8-2.23,25.63,2.05,15.6,6.53,5.06,16.66-.09,25.53,0V1.27c-.72,.05-1.43,.07-2.13,.14-3.39,.31-6.56,1.31-9.54,2.95-.2,.11-.26,.24-.26,.46,0,13.87,0,27.74,0,41.62,0,.24,.07,.37,.28,.49,3.47,1.91,7.17,2.94,11.13,3.04,5.91,.14,11.2-1.63,15.81-5.31,4.3-3.43,7.11-7.85,8.47-13.18,.4-1.58,.61-3.19,.7-4.82,0-.11,0-.23,0-.37ZM12.24,5.41C5.62,9.64,.25,18.33,1.53,28.55c.92,7.36,4.59,13.08,10.7,17.38V5.41Z"></path> </g> </svg> 