<?xml version="1.0" encoding="UTF-8"?> <svg xmlns="http://www.w3.org/2000/svg" width="512" height="512" viewBox="0 0 512 512" fill="none"> <path d="M256 0C114.833 0 0 114.844 0 256C0 397.156 114.833 512 256 512C397.167 512 512 397.156 512 256C512 114.844 397.167 0 256 0ZM256 490.667C126.604 490.667 21.333 385.396 21.333 256C21.333 126.604 126.604 21.333 256 21.333C385.396 21.333 490.667 126.604 490.667 256C490.667 385.396 385.396 490.667 256 490.667Z" fill="#008C8C"></path> <path d="M357.771 247.031L208.438 151.031C205.167 148.896 200.938 148.781 197.563 150.635C194.125 152.51 192 156.094 192 160V352C192 355.906 194.125 359.49 197.563 361.365C199.146 362.23 200.917 362.667 202.667 362.667C204.667 362.667 206.688 362.104 208.438 360.969L357.771 264.969C360.813 263.011 362.667 259.625 362.667 256C362.667 252.375 360.813 248.99 357.771 247.031ZM213.333 332.458L277.5 297.5L332.271 256L213.333 332.458Z" fill="#008C8C"></path> </svg> 