<?xml version="1.0" encoding="UTF-8"?> <svg xmlns="http://www.w3.org/2000/svg" width="100" height="100" viewBox="0 0 100 100" fill="none"> <path fill-rule="evenodd" clip-rule="evenodd" d="M50 100C77.6143 100 100 77.6143 100 50C100 22.3857 77.6143 0 50 0C22.3857 0 0 22.3857 0 50C0 77.6143 22.3857 100 50 100ZM35.5996 26.2002C33.8325 24.8745 33.4741 22.3677 34.7998 20.6001C36.1255 18.833 38.6323 18.4746 40.3999 19.8003L71.0664 42.8003C75.8667 46.4004 75.8667 53.6001 71.0664 57.2002L40.3999 80.2002C38.6323 81.5259 36.1255 81.1675 34.7998 79.4004C33.4741 77.6328 33.8325 75.1255 35.5996 73.8003L66.2666 50.8003C66.7998 50.4004 66.7998 49.6001 66.2666 49.2002L35.5996 26.2002Z" fill="#7EBEC1"></path> </svg> 