<?xml version="1.0" encoding="UTF-8"?> <svg xmlns="http://www.w3.org/2000/svg" width="100" height="100" viewBox="0 0 100 100" fill="none"> <path fill-rule="evenodd" clip-rule="evenodd" d="M50 100C22.3858 100 0 77.6142 0 50C0 22.3858 22.3858 0 50 0C77.6142 0 100 22.3858 100 50C100 77.6142 77.6142 100 50 100ZM64.4002 26.2002C66.1675 24.8748 66.5256 22.3675 65.2002 20.6002C63.8747 18.8329 61.3675 18.4748 59.6002 19.8002L28.9335 42.8002C24.1335 46.4002 24.1335 53.6002 28.9335 57.2002L59.6002 80.2002C61.3675 81.5257 63.8747 81.1675 65.2002 79.4002C66.5256 77.6329 66.1675 75.1257 64.4002 73.8002L33.7335 50.8002C33.2002 50.4002 33.2002 49.6002 33.7335 49.2002L64.4002 26.2002Z" fill="#7EBEC1"></path> </svg> 