<?xml version="1.0" encoding="UTF-8"?> <svg xmlns="http://www.w3.org/2000/svg" width="600" height="600" viewBox="0 0 600 600" fill="none"> <circle cx="300" cy="300" r="300" fill="#7EBEC1"></circle> <path d="M293.765 111.218C296.363 106.127 303.637 106.127 306.235 111.218L360.134 216.833C361.151 218.826 363.06 220.213 365.27 220.564L482.371 239.188C488.016 240.086 490.264 247.004 486.225 251.048L402.434 334.946C400.853 336.529 400.124 338.773 400.473 340.983L418.947 458.108C419.837 463.754 413.952 468.03 408.858 465.438L303.174 411.675C301.18 410.66 298.82 410.66 296.826 411.675L191.142 465.438C186.048 468.03 180.163 463.754 181.053 458.108L199.527 340.983C199.876 338.773 199.147 336.529 197.566 334.946L113.775 251.048C109.736 247.004 111.984 240.086 117.629 239.188L234.73 220.564C236.94 220.213 238.849 218.826 239.866 216.833L293.765 111.218Z" fill="white"></path> </svg> 