<svg xmlns="http://www.w3.org/2000/svg" fill-rule="evenodd" viewBox="0 0 100 100">
    <path d="M9 49.383c0 21.714 18.019 39.379 40.167 39.379 22.149 0 40.167-17.665 40.168-39.379 0-3.047-.342-6.023-1.016-8.847a3.118 3.118 0 0 0-6.063 1.447 31.91 31.91 0 0 1 .846 7.399c0 18.277-15.223 33.147-33.935 33.147-18.711 0-33.934-14.87-33.934-33.147 0-18.278 15.223-33.149 33.934-33.149 7.459 0 14.585 2.361 20.607 6.828a3.116 3.116 0 0 0 3.713-5.006C66.383 12.785 57.973 10 49.167 10 27.019 10 9 27.667 9 49.383Zm37.176 17.969a3.12 3.12 0 0 0 2.204.912l.09-.001a3.114 3.114 0 0 0 2.235-1.04l39.412-44.145a3.116 3.116 0 0 0-4.65-4.151L48.251 60.613 29.294 41.658a3.115 3.115 0 1 0-4.407 4.407l21.29 21.287Z"/>
</svg>
