<?xml version="1.0" encoding="UTF-8"?> <svg xmlns="http://www.w3.org/2000/svg" width="512" height="242" viewBox="0 0 512 242" fill="none"> <rect x="5" y="237" width="232" height="39" rx="10" transform="rotate(-90 5 237)" stroke="#7EBEC1" stroke-width="10"></rect> <path d="M206 50L206 192L233.929 192C237.257 192 240.533 191.169 243.459 189.583L353.779 129.792C360.759 126.009 360.759 115.991 353.779 112.208L243.459 52.4165C240.533 50.8306 237.257 50 233.929 50L206 50Z" stroke="#7EBEC1" stroke-width="10"></path> <rect x="44" y="198" width="154" height="55" rx="10" transform="rotate(-90 44 198)" stroke="#7EBEC1" stroke-width="10"></rect> <rect x="99" y="215" width="188" height="107" rx="30" transform="rotate(-90 99 215)" stroke="#7EBEC1" stroke-width="10"></rect> <rect x="206" y="192" width="142" height="36" rx="10" transform="rotate(-90 206 192)" stroke="#7EBEC1" stroke-width="10"></rect> <path d="M390 121L507 121" stroke="#7EBEC1" stroke-width="10" stroke-linecap="round" stroke-dasharray="20 15"></path> <path d="M392.18 106.283L442.857 70.5653" stroke="#7EBEC1" stroke-width="10" stroke-linecap="round" stroke-dasharray="20 15"></path> <path d="M392.18 136.281L442.857 171.999" stroke="#7EBEC1" stroke-width="10" stroke-linecap="round" stroke-dasharray="20 15"></path> </svg> 