<svg xmlns="http://www.w3.org/2000/svg" fill-rule="evenodd" viewBox="0 0 100 100">
    <path d="M10 49.34C10 27.648 27.648 10 49.34 10c21.685 0 39.327 17.648 39.327 39.339 0 21.687-17.642 39.331-39.327 39.331C27.648 88.67 10 71.027 10 49.34Zm6.234 0c0 18.25 14.851 33.098 33.106 33.098 18.248 0 33.094-14.848 33.094-33.098 0-18.254-14.845-33.106-33.094-33.106-18.254 0-33.106 14.851-33.106 33.106Zm44.54-14.368a3.116 3.116 0 1 1 4.408 4.407l-11.44 11.44 11.432 11.435a3.115 3.115 0 0 1-2.204 5.32 3.104 3.104 0 0 1-2.204-.914L49.335 55.226 37.9 66.661a3.11 3.11 0 0 1-2.204.912 3.117 3.117 0 0 1-2.204-5.32L44.928 50.82 33.492 39.38a3.117 3.117 0 0 1 4.408-4.408l11.435 11.44 11.439-11.44Z"/>
</svg>
