<?xml version="1.0" encoding="UTF-8"?> <svg xmlns="http://www.w3.org/2000/svg" width="20" height="17" viewBox="0 0 20 17" fill="none"> <path d="M6 9.7C6.96 9.7 7.72 10.02 8.28 10.66C8.88 11.26 9.18 12.06 9.18 13.06C9.18 14.14 8.82 15 8.1 15.64C7.42 16.24 6.48 16.54 5.28 16.54C3.88 16.54 2.78 16 1.98 14.92C1.22 13.84 0.84 12.3 0.84 10.3C0.84 8.5 1.24 6.84 2.04 5.32C2.84 3.76 4.04 2.2 5.64 0.639999C5.68 0.599999 5.74 0.58 5.82 0.58C5.94 0.58 6.04 0.639999 6.12 0.759997C6.2 0.879998 6.2 0.979998 6.12 1.06C4.16 3.06 3.18 5.42 3.18 8.14C3.18 9.26 3.38 10.08 3.78 10.6C4.14 10 4.88 9.7 6 9.7ZM16.38 9.7C17.34 9.7 18.1 10.02 18.66 10.66C19.26 11.26 19.56 12.06 19.56 13.06C19.56 14.14 19.2 15 18.48 15.64C17.8 16.24 16.86 16.54 15.66 16.54C14.26 16.54 13.16 16 12.36 14.92C11.6 13.84 11.22 12.3 11.22 10.3C11.22 8.5 11.62 6.84 12.42 5.32C13.22 3.76 14.42 2.2 16.02 0.639999C16.06 0.599999 16.12 0.58 16.2 0.58C16.32 0.58 16.42 0.639999 16.5 0.759997C16.58 0.879998 16.58 0.979998 16.5 1.06C14.54 3.06 13.56 5.42 13.56 8.14C13.56 9.26 13.76 10.08 14.16 10.6C14.52 10 15.26 9.7 16.38 9.7Z" fill="#3E3E3E"></path> </svg> 